<?xml version="1.0" encoding="UTF-8" standalone="no"?>
<!-- Created with Inkscape (http://www.inkscape.org/) -->

<svg
   xmlns:svg="http://www.w3.org/2000/svg"
   xmlns="http://www.w3.org/2000/svg"
   version="1.1"
   width="800"
   height="400"
   id="svg2">
  <defs
     id="defs4" />
  <g
     transform="translate(0,-652.36218)"
     id="layer1">
    <path
       d="m 337.45641,678.07698 c -92.87111,2.00036 -176.22923,58.4948 -176.22923,104.67445 0,17.25535 17.60232,37.61738 49.98614,37.61738 57.07983,0 96.21095,-46.38531 124.50533,-85.25243 5.63757,-7.74414 1.67447,-16.35103 -7.66658,-7.46215 -26.80961,25.51191 -44.96277,60.02082 -91.89679,60.71936 -16.36602,0.2437 -22.07977,-9.2035 -22.07977,-21.87532 0,-36.6358 52.16814,-73.73229 110.90992,-72.27035 46.51658,1.15767 70.44339,6.96916 102.83447,16.86649 37.04406,11.3191 74.02047,22.99976 112.13659,22.99976 57.06308,0 109.20335,-20.17872 153.63837,-43.64843 10.59665,-5.59694 9.6941,-17.33899 -6.95104,-9.50657 -44.1506,20.77523 -77.75329,24.68737 -119.59873,23.40864 -37.02757,-1.13149 -73.65525,-4.89909 -108.66107,-13.49319 -37.14536,-9.11936 -74.62997,-12.14531 -111.93215,-12.77764 -3.01315,-0.051 -5.99961,-0.0644 -8.99546,0 z m 48.24838,72.78145 c -23.0712,5.16166 -54.47543,5.71853 -117.24763,78.91472 -8.73283,0.33182 -17.70042,0.51111 -26.98638,0.51111 -163.858625,0 -228.362028,25.27551 -228.362028,40.88845 0,3.60162 4.137683,10.52878 7.564364,10.52878 4.696383,0 7.053259,-1.22512 7.053259,-3.57774 0,-3.06362 -1.057768,-3.84263 -2.964413,-5.21328 40.163127,-24.56519 135.712968,-30.05301 207.917798,-30.05301 8.48393,0 16.82112,-0.14556 24.94196,-0.40889 -61.14489,72.24268 -126.56655,126.08368 -158.647211,120.41651 -25.083301,-4.4311 -37.599715,-16.30639 -47.941714,-39.1507 -21.437327,2.94194 -31.784003,21.26272 -31.484111,33.32409 0.93049,37.4255 41.56655,56.65513 74.723652,56.01723 74.922734,-1.4416 113.756684,-64.59461 151.900614,-120.92765 12.27409,-18.12703 24.64095,-35.15815 37.41294,-51.00835 16.94803,-1.16856 32.94103,-2.90141 47.83948,-5.11106 -2.22486,5.62576 -3.47552,11.37174 -3.47552,17.07093 0,11.84104 9.55514,21.6282 23.30642,21.56866 14.07626,-0.0608 25.34531,-14.30167 26.57749,-22.59087 -12.71879,3.9791 -20.46516,-1.91309 -20.13756,-11.85765 0.10107,-3.06392 0.66311,-6.08214 1.53332,-9.09768 61.77316,-12.82092 98.95882,-34.3608 100.07449,-55.19942 0.72968,-13.6292 -11.85523,-17.03168 -23.91975,-16.86649 -19.03684,0.26104 -74.23593,29.20349 -97.2123,64.19488 -13.48884,2.11714 -28.15173,3.78895 -43.85285,5.00884 28.14351,-32.846 58.02489,-59.44802 91.38568,-77.38141 z m 54.27942,19.3198 c 3.97397,0.16682 7.53238,1.58991 7.66659,6.95104 0.28949,11.69311 -29.12802,29.28205 -82.49246,40.99067 15.94375,-25.61694 53.34854,-46.31396 70.83925,-47.83949 1.2944,-0.11285 2.66197,-0.15799 3.98662,-0.10206 z m 322.60992,39.96846 c -1.58026,0.0438 -2.86559,0.10206 -3.67996,0.10206 -5.34772,0 -15.6749,1.24245 -17.78648,4.08885 l -72.67923,102.01669 1.63554,-8.27991 c 2.89834,-14.49182 -9.48256,-25.55528 -30.97301,-25.55528 -19.80139,0 -52.233,16.67604 -75.4392,40.68401 -16.94051,17.52581 -37.17042,33.22187 -55.09719,33.22187 -13.17475,0 -17.88085,-7.56145 -18.60425,-13.18653 -1.13948,-8.86046 2.39996,-17.39264 6.23549,-26.06639 0.76579,9.00325 5.54853,19.8309 14.82207,19.8309 13.3854,0 46.30617,-24.12186 46.30617,-41.29734 0,-11.80933 -5.74375,-14.41318 -19.01313,-14.41318 -18.40484,0 -42.30565,22.92694 -62.76378,39.6618 5.4804,-7.11897 10.18492,-14.22862 9.50657,-21.97754 -1.25989,-14.39166 -10.93587,-20.05441 -23.61309,-17.27537 -21.06301,4.61732 -52.44373,23.78648 -68.48816,47.02172 l 5.3155,-21.46644 c 2.74283,-10.97135 -3.13156,-20.47726 -12.77764,-20.23978 -15.91484,0.39168 -34.3432,20.13272 -32.60855,25.24862 1.3557,3.99827 11.13452,-1.18276 16.04872,-2.04442 8.30209,-1.45573 12.91454,9.66563 12.67542,17.47981 -0.57093,18.65047 -35.91991,51.82612 -61.4349,51.82612 -18.14116,0 -24.32862,-13.54697 -24.32862,-22.6931 0,-28.68639 30.70817,-51.43574 61.53711,-61.53712 11.66584,-3.82242 14.14888,-11.75435 4.59996,-9.91545 -31.93608,6.15015 -54.13593,14.86871 -96.2923,49.98614 -26.13198,21.76865 -56.08725,39.75254 -82.59468,59.90158 -2.87708,2.18695 -3.22957,14.74739 10.32433,5.51999 26.89891,-18.31277 73.90588,-55.50612 73.90588,-55.50612 -7.75434,10.41157 -14.00429,22.99161 -14.00429,33.83519 0,14.86394 11.37082,33.11963 30.973,33.11963 27.95641,0 61.01963,-19.21258 79.32359,-39.66178 22.02269,-24.60379 46.09091,-48.44046 71.0437,-65.72819 6.40437,-4.43709 8.3944,5.02457 8.27991,7.05326 -0.17729,3.13905 -1.76243,5.62693 -4.59995,8.68879 -26.88727,29.01282 -46.79135,59.65439 -68.59039,89.64792 l 38.43515,0 c 27.92498,-38.31004 55.7136,-75.73999 79.3236,-89.23903 -4.38582,6.28406 -8.68879,14.77509 -8.68879,19.42201 0,14.45168 14.26709,24.73752 27.70193,24.73752 10.45239,0 23.29055,-7.57837 33.83519,-12.77764 -7.90393,11.28963 -13.52269,22.52591 -13.18652,33.83519 0.60989,20.51875 16.61006,29.38765 33.01742,28.92855 32.14091,-0.8993 54.31636,-26.76332 74.72366,-49.9861 -5.15185,9.22447 -11.14211,18.76152 -11.14211,27.90637 0,12.56503 15.73202,22.07973 27.70193,22.07973 29.70115,0 82.76098,-48.27085 97.11008,-66.85259 5.49937,-7.12152 0.34458,-19.21878 -8.27991,-9.91545 -16.5627,17.86636 -33.45398,37.04605 -54.1772,44.9773 -8.76937,3.35626 -16.75724,-0.38428 -13.18653,-11.55099 1.27533,-3.98839 3.60859,-7.59046 5.82661,-11.1421 29.8716,-47.83269 71.95099,-87.49187 100.79004,-135.95412 4.17919,-7.02287 0.55876,-10.89 -2.96441,-14.41318 -2.27978,-2.27977 -9.2635,-2.27824 -14.0043,-2.14664 z m -118.06542,84.94577 c 12.02795,0 15.4354,6.15708 15.4354,12.26654 0,8.36283 -11.59149,18.09314 -19.83091,18.09314 -8.83792,0 -14.26558,12.12136 -0.3065,9.60879 l 14.61763,-2.65775 c -11.76358,15.0318 -48.64261,49.67947 -67.46595,49.67947 -12.75118,0 -15.74206,-4.16532 -15.74206,-14.92429 0,-29.09648 52.52511,-72.0659 73.29256,-72.0659 z"
       id="path2834"
       style="fill:#000000;stroke:#000000;stroke-width:3.27107644px;stroke-linecap:butt;stroke-linejoin:miter;stroke-opacity:1" />
  </g>
</svg>
